<mxfile host="app.diagrams.net" modified="2022-10-17T10:56:15.952Z" agent="5.0 (Windows NT 10.0; Win64; x64) AppleWebKit/537.36 (KHTML, like Gecko) Chrome/106.0.0.0 Safari/537.36" etag="HEiZDkWlqyvWiEJvPwwK" version="20.4.1" type="github">
  <diagram id="F_zapow96lG1mKv8tIUM" name="Page-1">
    <mxGraphModel dx="1422" dy="839" grid="1" gridSize="10" guides="1" tooltips="1" connect="1" arrows="1" fold="1" page="1" pageScale="1" pageWidth="827" pageHeight="1169" math="0" shadow="0">
      <root>
        <mxCell id="0" />
        <mxCell id="1" parent="0" />
        <mxCell id="VVtjNtFmErkBEKrOB470-1" value="belongs to" style="rhombus;whiteSpace=wrap;html=1;" vertex="1" parent="1">
          <mxGeometry x="370" y="390" width="80" height="80" as="geometry" />
        </mxCell>
        <mxCell id="VVtjNtFmErkBEKrOB470-2" value="Employee" style="rounded=0;whiteSpace=wrap;html=1;" vertex="1" parent="1">
          <mxGeometry x="110" y="400" width="120" height="60" as="geometry" />
        </mxCell>
        <mxCell id="VVtjNtFmErkBEKrOB470-3" value="Department" style="rounded=0;whiteSpace=wrap;html=1;" vertex="1" parent="1">
          <mxGeometry x="550" y="400" width="120" height="60" as="geometry" />
        </mxCell>
        <mxCell id="VVtjNtFmErkBEKrOB470-4" value="" style="endArrow=none;html=1;rounded=0;exitX=1;exitY=0.5;exitDx=0;exitDy=0;entryX=0;entryY=0.5;entryDx=0;entryDy=0;" edge="1" parent="1" source="VVtjNtFmErkBEKrOB470-2" target="VVtjNtFmErkBEKrOB470-1">
          <mxGeometry width="50" height="50" relative="1" as="geometry">
            <mxPoint x="390" y="460" as="sourcePoint" />
            <mxPoint x="440" y="410" as="targetPoint" />
          </mxGeometry>
        </mxCell>
        <mxCell id="VVtjNtFmErkBEKrOB470-5" value="" style="endArrow=none;html=1;rounded=0;entryX=0;entryY=0.5;entryDx=0;entryDy=0;exitX=1;exitY=0.5;exitDx=0;exitDy=0;" edge="1" parent="1" source="VVtjNtFmErkBEKrOB470-1" target="VVtjNtFmErkBEKrOB470-3">
          <mxGeometry width="50" height="50" relative="1" as="geometry">
            <mxPoint x="390" y="460" as="sourcePoint" />
            <mxPoint x="440" y="410" as="targetPoint" />
          </mxGeometry>
        </mxCell>
      </root>
    </mxGraphModel>
  </diagram>
</mxfile>
